<svg width="1139" height="866" viewBox="0 0 1139 866" fill="none" xmlns="http://www.w3.org/2000/svg">
<path d="M577 79L923 131.5L1123.5 240.5V442.5H0V240.5L182 131.5L577 79Z" fill="#190A2D"/>
<path d="M577 79L923 131.5L1123.5 240.5V442.5H0V240.5L182 131.5L577 79Z" fill="#190A2D"/>
<path d="M6.99999 230C-4.60001 248 2.16666 275.833 6.99999 287.5L332 166V153C340 122.6 317.667 102 305.5 95.5C293.5 92.3333 265.9 89.9 251.5 105.5C247.388 109.955 245.135 115.684 244.155 121.916C252.704 133.352 256.67 149.14 251.5 166C247.213 156.236 241.702 137.505 244.155 121.916C233.688 107.915 216.352 100.436 200.5 105.5C186.804 109.875 180.933 123.846 179.241 139.95C192.885 157.338 188.832 179.994 184 191C180.591 178.064 177.375 157.71 179.241 139.95C175.942 135.746 171.608 131.849 166 128.5C137.2 111.3 112.333 146.333 103.5 166C72.5 145 56 156.5 41.5 182.5C36.4924 191.479 39.4161 204.454 45.1225 216.44C57.9421 218.834 69.4378 226.809 72.5 240C76.7552 258.33 55.9394 239.161 45.1225 216.44C30.7301 213.752 14.669 218.1 6.99999 230Z" fill="#190A2D"/>
<path d="M278.249 133.164C262.073 147.196 260.775 175.811 262.149 188.364L608.169 162.723L611.809 150.243C628 123.298 612.328 97.2692 602.468 87.6226C591.835 81.2226 566.02 71.1587 547.828 82.1029C542.633 85.2281 538.866 90.0976 536.18 95.8051C541.186 109.178 540.573 125.445 530.889 140.183C529.507 129.609 529.46 110.085 536.18 95.8051C530.053 79.4336 515.504 67.4003 498.868 67.8231C484.495 68.1884 474.947 79.9567 468.814 94.9425C477.044 115.455 466.809 136.071 459.089 145.283C459.438 131.91 462.049 111.47 468.814 94.9425C466.824 89.9826 463.754 85.0286 459.308 80.2433C436.476 55.6674 402.795 82.3368 388.808 98.7435C364.928 69.9037 345.868 76.3237 324.668 97.2238C317.347 104.442 316.521 117.716 318.643 130.82C330.279 136.708 339.082 147.583 338.329 161.104C337.281 179.892 322.665 155.661 318.643 130.82C305.579 124.211 288.943 123.887 278.249 133.164Z" fill="#190A2D"/>
<path d="M946.113 122.855C926.123 116.483 895.812 121.855 883.156 125.337L1024.09 320.397L1038.32 319.836C1071.8 323.454 1093.81 308.801 1100.63 301.021C1103.81 293.489 1105.8 276.373 1088.37 268.172C1083.39 265.83 1077.07 264.688 1070.22 264.353C1057.9 270.116 1040.71 273.242 1022.13 270.783C1032.72 267.72 1053.09 263.514 1070.22 264.353C1085.29 257.298 1093.06 246.29 1087.13 236.739C1082.01 228.487 1066.57 225.472 1048.9 225.124C1030.19 234.284 1005.28 232.764 993.116 230.261C1007.2 227.601 1029.4 224.74 1048.9 225.124C1053.42 222.909 1057.58 220.07 1061.11 216.469C1079.24 197.976 1040.28 184.163 1018.53 179.567C1040.77 159.555 1027.78 149.882 998.96 142.068C989.007 139.369 974.872 141.731 961.887 145.765C959.577 153.77 951.124 161.199 936.756 163.656C916.789 167.07 937.272 153.413 961.887 145.765C964.48 136.779 959.329 127.068 946.113 122.855Z" fill="#190A2D"/>
<path d="M892.375 258.389C877.51 273.196 868.315 302.573 865.575 315.411L1103.63 280.185L1109.69 267.293C1128.32 239.245 1125.46 212.956 1121.69 203.318C1116.47 197.03 1102.2 187.376 1086.89 199.068C1082.52 202.407 1078.59 207.498 1075.14 213.42C1074.58 227.005 1069.43 243.703 1058.69 259.066C1060.85 248.258 1066.5 228.237 1075.14 213.42C1075.82 196.79 1069.63 184.825 1058.42 185.688C1048.73 186.434 1038.94 198.748 1030.49 214.274C1030.01 235.098 1017.18 256.503 1009.36 266.149C1013.48 252.426 1021.18 231.397 1030.49 214.274C1030.61 209.239 1030.01 204.238 1028.44 199.446C1020.38 174.833 990.17 203.051 976.073 220.237C968.555 191.279 953.985 198.354 933.773 220.334C926.792 227.925 922.377 241.559 919.976 254.943C926.016 260.68 928.717 271.605 924.278 285.49C918.11 304.784 915.424 280.313 919.976 254.943C913.194 248.502 902.202 248.599 892.375 258.389Z" fill="#190A2D"/>
<path d="M620.249 161.164C604.073 175.196 602.775 203.811 604.149 216.364L950.169 190.723L953.809 178.243C970 151.298 954.328 125.269 944.468 115.623C933.835 109.223 908.02 99.1587 889.828 110.103C884.633 113.228 880.866 118.098 878.18 123.805C883.186 137.178 882.573 153.445 872.889 168.183C871.507 157.609 871.46 138.085 878.18 123.805C872.053 107.434 857.504 95.4003 840.868 95.8231C826.495 96.1884 816.947 107.957 810.814 122.943C819.044 143.455 808.809 164.071 801.089 173.283C801.438 159.91 804.049 139.47 810.814 122.943C808.824 117.983 805.754 113.029 801.308 108.243C778.476 83.6674 744.795 110.337 730.808 126.744C706.928 97.9037 687.868 104.324 666.668 125.224C659.347 132.442 658.521 145.716 660.643 158.82C672.279 164.708 681.082 175.583 680.329 189.104C679.281 207.892 664.665 183.661 660.643 158.82C647.579 152.211 630.943 151.887 620.249 161.164Z" fill="#190A2D"/>
<path d="M433.249 133.164C417.073 147.196 415.775 175.811 417.149 188.364L763.169 162.723L766.809 150.243C783 123.298 767.328 97.2692 757.468 87.6226C746.835 81.2226 721.02 71.1587 702.828 82.1029C697.633 85.2281 693.866 90.0976 691.18 95.8051C696.186 109.178 695.573 125.445 685.889 140.183C684.507 129.609 684.46 110.085 691.18 95.8051C685.053 79.4336 670.504 67.4003 653.868 67.8231C639.495 68.1884 629.947 79.9567 623.814 94.9425C632.044 115.455 621.809 136.071 614.089 145.283C614.438 131.91 617.049 111.47 623.814 94.9425C621.824 89.9826 618.754 85.0286 614.308 80.2433C591.476 55.6674 557.795 82.3368 543.808 98.7435C519.928 69.9037 500.868 76.3237 479.668 97.2238C472.347 104.442 471.521 117.716 473.643 130.82C485.279 136.708 494.082 147.583 493.329 161.104C492.281 179.892 477.665 155.661 473.643 130.82C460.579 124.211 443.943 123.887 433.249 133.164Z" fill="#190A2D"/>
<path d="M577 786.5L923 734L1123.5 625V423H0V625L182 734L577 786.5Z" fill="#190A2D"/>
<path d="M577 786.5L923 734L1123.5 625V423H0V625L182 734L577 786.5Z" fill="#190A2D"/>
<path d="M6.99999 635.5C-4.60001 617.5 2.16666 589.667 6.99999 578L332 699.5V712.5C340 742.9 317.667 763.5 305.5 770C293.5 773.167 265.9 775.6 251.5 760C247.388 755.545 245.135 749.816 244.155 743.584C252.704 732.148 256.67 716.36 251.5 699.5C247.213 709.264 241.702 727.995 244.155 743.584C233.688 757.585 216.352 765.064 200.5 760C186.804 755.625 180.933 741.654 179.241 725.55C192.885 708.162 188.832 685.506 184 674.5C180.591 687.436 177.375 707.79 179.241 725.55C175.942 729.754 171.608 733.651 166 737C137.2 754.2 112.333 719.167 103.5 699.5C72.5 720.5 56 709 41.5 683C36.4924 674.021 39.4161 661.046 45.1225 649.06C57.9421 646.666 69.4378 638.691 72.5 625.5C76.7552 607.17 55.9394 626.339 45.1225 649.06C30.7301 651.748 14.669 647.4 6.99999 635.5Z" fill="#190A2D"/>
<path d="M278.249 732.336C262.073 718.304 260.775 689.689 262.149 677.136L608.169 702.777L611.809 715.257C628 742.202 612.328 768.231 602.468 777.877C591.835 784.277 566.02 794.341 547.828 783.397C542.633 780.272 538.866 775.402 536.18 769.695C541.186 756.322 540.573 740.055 530.889 725.317C529.507 735.891 529.46 755.415 536.18 769.695C530.053 786.066 515.504 798.1 498.868 797.677C484.495 797.312 474.947 785.543 468.814 770.557C477.044 750.045 466.809 729.429 459.089 720.217C459.438 733.59 462.049 754.03 468.814 770.557C466.824 775.517 463.754 780.471 459.308 785.257C436.476 809.833 402.795 783.163 388.808 766.756C364.928 795.596 345.868 789.176 324.668 768.276C317.347 761.058 316.521 747.784 318.643 734.68C330.279 728.792 339.082 717.917 338.329 704.396C337.281 685.608 322.665 709.839 318.643 734.68C305.579 741.289 288.943 741.613 278.249 732.336Z" fill="#190A2D"/>
<path d="M946.113 742.645C926.123 749.017 895.812 743.645 883.156 740.163L1024.09 545.103L1038.32 545.664C1071.8 542.046 1093.81 556.699 1100.63 564.479C1103.81 572.011 1105.8 589.127 1088.37 597.328C1083.39 599.67 1077.07 600.812 1070.22 601.147C1057.9 595.384 1040.71 592.258 1022.13 594.717C1032.72 597.78 1053.09 601.986 1070.22 601.147C1085.29 608.202 1093.06 619.21 1087.13 628.761C1082.01 637.013 1066.57 640.028 1048.9 640.376C1030.19 631.216 1005.28 632.736 993.116 635.239C1007.2 637.899 1029.4 640.76 1048.9 640.376C1053.42 642.591 1057.58 645.43 1061.11 649.031C1079.24 667.524 1040.28 681.337 1018.53 685.933C1040.77 705.945 1027.78 715.618 998.96 723.432C989.007 726.131 974.872 723.769 961.887 719.735C959.577 711.73 951.124 704.301 936.756 701.844C916.789 698.43 937.272 712.087 961.887 719.735C964.48 728.721 959.329 738.432 946.113 742.645Z" fill="#190A2D"/>
<path d="M892.375 607.111C877.51 592.304 868.315 562.927 865.575 550.089L1103.63 585.315L1109.69 598.207C1128.32 626.255 1125.46 652.544 1121.69 662.182C1116.47 668.47 1102.2 678.124 1086.89 666.432C1082.52 663.093 1078.59 658.002 1075.14 652.08C1074.58 638.495 1069.43 621.797 1058.69 606.434C1060.85 617.242 1066.5 637.263 1075.14 652.08C1075.82 668.71 1069.63 680.675 1058.42 679.812C1048.73 679.066 1038.94 666.752 1030.49 651.226C1030.01 630.402 1017.18 608.997 1009.36 599.351C1013.48 613.074 1021.18 634.103 1030.49 651.226C1030.61 656.261 1030.01 661.262 1028.44 666.054C1020.38 690.667 990.17 662.449 976.073 645.263C968.555 674.221 953.985 667.146 933.773 645.166C926.792 637.575 922.377 623.941 919.976 610.557C926.016 604.82 928.717 593.895 924.278 580.01C918.11 560.716 915.424 585.187 919.976 610.557C913.194 616.998 902.202 616.901 892.375 607.111Z" fill="#190A2D"/>
<path d="M620.249 704.336C604.073 690.304 602.775 661.689 604.149 649.136L950.169 674.777L953.809 687.257C970 714.202 954.328 740.231 944.468 749.877C933.835 756.277 908.02 766.341 889.828 755.397C884.633 752.272 880.866 747.402 878.18 741.695C883.186 728.322 882.573 712.055 872.889 697.317C871.507 707.891 871.46 727.415 878.18 741.695C872.053 758.066 857.504 770.1 840.868 769.677C826.495 769.312 816.947 757.543 810.814 742.557C819.044 722.045 808.809 701.429 801.089 692.217C801.438 705.59 804.049 726.03 810.814 742.557C808.824 747.517 805.754 752.471 801.308 757.257C778.476 781.833 744.795 755.163 730.808 738.756C706.928 767.596 687.868 761.176 666.668 740.276C659.347 733.058 658.521 719.784 660.643 706.68C672.279 700.792 681.082 689.917 680.329 676.396C679.281 657.608 664.665 681.839 660.643 706.68C647.579 713.289 630.943 713.613 620.249 704.336Z" fill="#190A2D"/>
<path d="M433.249 732.336C417.073 718.304 415.775 689.689 417.149 677.136L763.169 702.777L766.809 715.257C783 742.202 767.328 768.231 757.468 777.877C746.835 784.277 721.02 794.341 702.828 783.397C697.633 780.272 693.866 775.402 691.18 769.695C696.186 756.322 695.573 740.055 685.889 725.317C684.507 735.891 684.46 755.415 691.18 769.695C685.053 786.066 670.504 798.1 653.868 797.677C639.495 797.312 629.947 785.543 623.814 770.557C632.044 750.045 621.809 729.429 614.089 720.217C614.438 733.59 617.049 754.03 623.814 770.557C621.824 775.517 618.754 780.471 614.308 785.257C591.476 809.833 557.795 783.163 543.808 766.756C519.928 795.596 500.868 789.176 479.668 768.276C472.347 761.058 471.521 747.784 473.643 734.68C485.279 728.792 494.082 717.917 493.329 704.396C492.281 685.608 477.665 709.839 473.643 734.68C460.579 741.289 443.943 741.613 433.249 732.336Z" fill="#190A2D"/>
</svg>
