<svg width="371" height="239" viewBox="0 0 371 239" fill="none" xmlns="http://www.w3.org/2000/svg">
<path d="M186.89 134.214C185.985 125.462 206.753 111.155 297.067 123.941C313.403 114.276 335.474 93.0059 293.065 85.2476C279.274 82.7247 264.763 81.7054 250.795 81.6231C221.807 81.4523 195.156 85.3163 182.126 88.1507L186.89 134.214Z" fill="#05043D"/>
<path d="M190.893 172.907C229.174 165.901 277.922 162.316 327.765 169.326C355.163 159.525 387.381 136.727 297.067 123.941C206.753 111.155 185.985 125.462 186.89 134.214L190.893 172.907Z" fill="#05043D"/>
<path d="M193.037 193.636C201.149 197.581 230.342 205.131 282.21 203.773C347.044 202.077 377.609 176.335 327.765 169.326C277.922 162.316 229.174 165.901 190.893 172.907L193.037 193.636Z" fill="#05043D"/>
<path d="M182.126 88.1507C195.156 85.3163 221.807 81.4523 250.795 81.6231C255.543 69.9983 253.972 51.3992 224.347 46.4003C213.218 44.5225 198.131 44.5639 177.933 47.6149L182.126 88.1507Z" fill="#05043D"/>
<path d="M173.74 7.07914L177.933 47.6149C198.131 44.5639 213.218 44.5225 224.347 46.4003C218.944 27.7586 201.259 -6.20418 173.74 7.07914Z" fill="#05043D"/>
<path d="M327.765 169.326C377.609 176.335 347.044 202.077 282.21 203.773C230.342 205.131 201.149 197.581 193.037 193.636L190.893 172.907M327.765 169.326C277.922 162.316 229.174 165.901 190.893 172.907M327.765 169.326C355.163 159.525 387.381 136.727 297.067 123.941M190.893 172.907L186.89 134.214M297.067 123.941C206.753 111.155 185.985 125.462 186.89 134.214M297.067 123.941C313.403 114.276 335.474 93.0059 293.065 85.2476C279.274 82.7247 264.763 81.7054 250.795 81.6231M186.89 134.214L182.126 88.1507M182.126 88.1507C195.156 85.3163 221.807 81.4523 250.795 81.6231M182.126 88.1507L177.933 47.6149M250.795 81.6231C255.543 69.9983 253.972 51.3992 224.347 46.4003M177.933 47.6149L173.74 7.07914C201.259 -6.20418 218.944 27.7586 224.347 46.4003M177.933 47.6149C198.131 44.5639 213.218 44.5225 224.347 46.4003" stroke="#05043D"/>
<path d="M201.871 132.308C201.871 123.535 224.065 110.245 312.839 127.273C330.132 118.405 354.343 98.2312 312.839 88.4851C299.342 85.3159 284.972 83.6125 271.046 82.8695C242.147 81.3274 215.162 83.9209 201.871 86.1319L201.871 132.308Z" fill="#05043D"/>
<path d="M201.871 171.096C240.782 165.919 289.78 164.649 338.779 174C367.121 165.519 401.613 144.302 312.839 127.273C224.065 110.245 201.871 123.535 201.871 132.308L201.871 171.096Z" fill="#05043D"/>
<path d="M201.871 191.876C209.557 196.194 237.899 205.107 289.78 206.207C354.631 207.583 387.777 183.35 338.779 174C289.78 164.649 240.782 165.919 201.871 171.096L201.871 191.876Z" fill="#05043D"/>
<path d="M201.871 86.1319C215.162 83.9209 242.147 81.3274 271.046 82.8695C276.982 71.4978 277.334 52.8697 248.297 46.4813C237.389 44.0815 222.335 43.4089 201.871 45.4968L201.871 86.1319Z" fill="#05043D"/>
<path d="M201.871 4.86165L201.871 45.4968C222.335 43.4089 237.389 44.0815 248.297 46.4813C244.831 27.6295 230.694 -7.08707 201.871 4.86165Z" fill="#05043D"/>
<path d="M338.779 174C387.777 183.35 354.631 207.583 289.78 206.207C237.899 205.107 209.557 196.194 201.871 191.876L201.871 171.096M338.779 174C289.78 164.649 240.782 165.919 201.871 171.096M338.779 174C367.121 165.519 401.613 144.302 312.839 127.273M201.871 171.096L201.871 132.308M312.839 127.273C224.065 110.245 201.871 123.535 201.871 132.308M312.839 127.273C330.132 118.405 354.343 98.2312 312.839 88.4851C299.342 85.3159 284.972 83.6125 271.046 82.8695M201.871 132.308L201.871 86.1319M201.871 86.1319C215.162 83.9209 242.147 81.3274 271.046 82.8695M201.871 86.1319L201.871 45.4968M271.046 82.8695C276.982 71.4978 277.334 52.8697 248.297 46.4813M201.871 45.4968L201.871 4.86165C230.694 -7.08707 244.831 27.6295 248.297 46.4813M201.871 45.4968C222.335 43.4089 237.389 44.0815 248.297 46.4813" stroke="#05043D"/>
<path d="M187.984 162.739C187.984 153.966 210.177 140.676 298.951 157.704C316.245 148.836 340.456 128.662 298.951 118.916C285.454 115.747 271.084 114.044 257.158 113.3C228.259 111.758 201.274 114.352 187.984 116.563L187.984 162.739Z" fill="#05043D"/>
<path d="M187.984 201.527C226.894 196.35 275.893 195.08 324.891 204.431C353.234 195.95 387.725 174.733 298.951 157.704C210.177 140.676 187.984 153.966 187.984 162.739L187.984 201.527Z" fill="#05043D"/>
<path d="M187.984 222.307C195.67 226.625 224.012 235.538 275.893 236.638C340.744 238.014 373.89 213.781 324.891 204.431C275.893 195.08 226.894 196.35 187.984 201.527L187.984 222.307Z" fill="#05043D"/>
<path d="M187.984 116.563C201.274 114.352 228.259 111.758 257.158 113.3C263.094 101.929 263.446 83.3007 234.409 76.9123C223.502 74.5126 208.447 73.8399 187.984 75.9278L187.984 116.563Z" fill="#05043D"/>
<path d="M187.984 35.2927L187.984 75.9278C208.447 73.8399 223.502 74.5126 234.409 76.9123C230.943 58.0605 216.806 23.344 187.984 35.2927Z" fill="#05043D"/>
<path d="M324.891 204.431C373.89 213.781 340.744 238.014 275.893 236.638C224.012 235.538 195.67 226.625 187.984 222.307L187.984 201.527M324.891 204.431C275.893 195.08 226.894 196.35 187.984 201.527M324.891 204.431C353.234 195.95 387.725 174.733 298.951 157.704M187.984 201.527L187.984 162.739M298.951 157.704C210.177 140.676 187.984 153.966 187.984 162.739M298.951 157.704C316.245 148.836 340.456 128.662 298.951 118.916C285.454 115.747 271.084 114.044 257.158 113.3M187.984 162.739L187.984 116.563M187.984 116.563C201.274 114.352 228.259 111.758 257.158 113.3M187.984 116.563L187.984 75.9278M257.158 113.3C263.094 101.929 263.446 83.3007 234.409 76.9123M187.984 75.9278L187.984 35.2927C216.806 23.344 230.943 58.0605 234.409 76.9123M187.984 75.9278C208.447 73.8399 223.502 74.5126 234.409 76.9123" stroke="#05043D"/>
<path d="M186.89 134.214C185.985 125.462 162.377 112.316 75.1888 129.747C56.9467 120.987 30.6073 100.984 71.1866 91.0537C84.3823 87.8247 98.6047 86.0535 112.481 85.2425C141.276 83.5595 168.581 86.0115 182.126 88.1506L186.89 134.214Z" fill="#05043D"/>
<path d="M190.892 172.907C151.373 167.937 102.148 166.916 54.0197 176.489C24.7476 168.171 -11.9997 147.178 75.1888 129.747C162.377 112.316 185.985 125.462 186.89 134.214L190.892 172.907Z" fill="#05043D"/>
<path d="M193.036 193.636C185.781 197.983 158.304 207.016 106.436 208.373C41.6018 210.069 5.89135 186.062 54.0197 176.489C102.148 166.916 151.373 167.937 190.892 172.907L193.036 193.636Z" fill="#05043D"/>
<path d="M182.126 88.1506C168.581 86.0115 141.276 83.5595 112.481 85.2425C105.36 73.9283 103.085 55.3476 131.519 48.8294C142.2 46.3808 157.214 45.6344 177.933 47.6148L182.126 88.1506Z" fill="#05043D"/>
<path d="M173.74 7.07896L177.933 47.6148C157.214 45.6344 142.2 46.3808 131.519 48.8294C133.046 30.0062 143.629 -4.69622 173.74 7.07896Z" fill="#05043D"/>
<path d="M54.0197 176.489C5.89135 186.062 41.6018 210.069 106.436 208.373C158.304 207.016 185.781 197.983 193.036 193.636L190.892 172.907M54.0197 176.489C102.148 166.916 151.373 167.937 190.892 172.907M54.0197 176.489C24.7476 168.171 -11.9997 147.178 75.1888 129.747M190.892 172.907L186.89 134.214M75.1888 129.747C162.377 112.316 185.985 125.462 186.89 134.214M75.1888 129.747C56.9467 120.987 30.6073 100.984 71.1866 91.0537C84.3823 87.8247 98.6047 86.0535 112.481 85.2425M186.89 134.214L182.126 88.1506M182.126 88.1506C168.581 86.0115 141.276 83.5595 112.481 85.2425M182.126 88.1506L177.933 47.6148M112.481 85.2425C105.36 73.9283 103.085 55.3476 131.519 48.8294M177.933 47.6148L173.74 7.07896C143.629 -4.69622 133.046 30.0062 131.519 48.8294M177.933 47.6148C157.214 45.6344 142.2 46.3808 131.519 48.8294" stroke="#05043D"/>
<path d="M168.914 141.262C168.914 132.489 146.721 118.257 57.9465 131.521C40.6529 121.919 16.4418 100.718 57.9465 92.7325C71.4432 90.1357 85.8136 89.0418 99.7395 88.8894C128.638 88.573 155.623 92.311 168.914 95.0857L168.914 141.262Z" fill="#05043D"/>
<path d="M168.914 180.05C130.004 173.222 81.0048 169.874 32.0063 177.147C3.66387 167.464 -30.8275 144.784 57.9465 131.521C146.721 118.257 168.914 132.489 168.914 141.262L168.914 180.05Z" fill="#05043D"/>
<path d="M168.914 200.829C161.228 204.822 132.886 212.533 81.0048 211.433C16.1538 210.057 -16.9923 184.419 32.0063 177.147C81.0048 169.874 130.004 173.222 168.914 180.05L168.914 200.829Z" fill="#05043D"/>
<path d="M168.914 95.0857C155.623 92.311 128.638 88.573 99.7395 88.8894C93.8031 77.2659 93.4514 58.6229 122.488 53.4661C133.396 51.5289 148.451 51.4948 168.914 54.4506L168.914 95.0857Z" fill="#05043D"/>
<path d="M168.914 13.8155L168.914 54.4506C148.451 51.4948 133.396 51.5289 122.488 53.4661C125.954 34.7612 140.091 0.64429 168.914 13.8155Z" fill="#05043D"/>
<path d="M32.0063 177.147C-16.9923 184.419 16.1538 210.057 81.0048 211.433C132.886 212.533 161.228 204.822 168.914 200.829L168.914 180.05M32.0063 177.147C81.0048 169.874 130.004 173.222 168.914 180.05M32.0063 177.147C3.66387 167.464 -30.8275 144.784 57.9465 131.521M168.914 180.05L168.914 141.262M57.9465 131.521C146.721 118.257 168.914 132.489 168.914 141.262M57.9465 131.521C40.6529 121.919 16.4418 100.718 57.9465 92.7325C71.4432 90.1357 85.8136 89.0418 99.7395 88.8894M168.914 141.262L168.914 95.0857M168.914 95.0857C155.623 92.311 128.638 88.573 99.7395 88.8894M168.914 95.0857L168.914 54.4506M99.7395 88.8894C93.8031 77.2659 93.4514 58.6229 122.488 53.4661M168.914 54.4506L168.914 13.8155C140.091 0.64429 125.954 34.7612 122.488 53.4661M168.914 54.4506C148.451 51.4948 133.396 51.5289 122.488 53.4661" stroke="#05043D"/>
<path d="M185.51 82.7299C185.51 91.5033 171.855 105.553 117.233 91.566C106.592 101.027 91.6953 122.03 117.233 130.354C125.537 133.061 134.379 134.272 142.948 134.538C160.729 135.09 177.332 131.572 185.51 128.906L185.51 82.7299Z" fill="#05043D"/>
<path d="M185.51 43.9418C161.569 50.4524 131.42 53.4006 101.272 45.7282C83.8332 55.1793 62.611 77.5785 117.233 91.566C171.855 105.553 185.51 91.5033 185.51 82.7299L185.51 43.9418Z" fill="#05043D"/>
<path d="M185.51 23.1625C180.781 19.1069 163.342 11.165 131.42 11.8419C91.5181 12.6881 71.1236 38.0558 101.272 45.7282C131.42 53.4006 161.569 50.4524 185.51 43.9418L185.51 23.1625Z" fill="#05043D"/>
<path d="M185.51 128.906C177.332 131.572 160.729 135.09 142.948 134.538C139.295 146.113 139.079 164.753 156.945 170.147C163.656 172.173 172.919 172.33 185.51 169.541L185.51 128.906Z" fill="#05043D"/>
<path d="M185.51 210.176L185.51 169.541C172.919 172.33 163.656 172.173 156.945 170.147C159.077 188.88 167.776 223.112 185.51 210.176Z" fill="#05043D"/>
<path d="M101.272 45.7282C71.1236 38.0558 91.5181 12.6881 131.42 11.8419C163.342 11.165 180.781 19.1069 185.51 23.1625L185.51 43.9418M101.272 45.7282C131.42 53.4006 161.569 50.4524 185.51 43.9418M101.272 45.7282C83.8332 55.1793 62.611 77.5785 117.233 91.566M185.51 43.9418L185.51 82.7299M117.233 91.566C171.855 105.553 185.51 91.5033 185.51 82.7299M117.233 91.566C106.592 101.027 91.6953 122.03 117.233 130.354C125.537 133.061 134.379 134.272 142.948 134.538M185.51 82.7299L185.51 128.906M185.51 128.906C177.332 131.572 160.729 135.09 142.948 134.538M185.51 128.906L185.51 169.541M142.948 134.538C139.295 146.113 139.079 164.753 156.945 170.147M185.51 169.541L185.51 210.176C167.776 223.112 159.077 188.88 156.945 170.147M185.51 169.541C172.919 172.33 163.656 172.173 156.945 170.147" stroke="#05043D"/>
<path d="M187.488 78.7299C187.488 87.5034 203.046 101.594 265.275 87.7677C277.398 97.26 294.37 118.307 265.275 126.556C255.814 129.238 245.741 130.423 235.979 130.664C215.721 131.163 196.805 127.597 187.488 124.906L187.488 78.7299Z" fill="#05043D"/>
<path d="M187.488 39.9418C214.764 46.5231 249.112 49.5603 283.459 41.977C303.327 51.4797 327.505 73.9415 265.275 87.7677C203.046 101.594 187.488 87.5034 187.488 78.7299L187.488 39.9418Z" fill="#05043D"/>
<path d="M187.488 19.1625C192.876 15.1209 212.744 7.23046 249.112 8.0017C294.571 8.96575 317.806 34.3937 283.459 41.977C249.112 49.5603 214.764 46.5231 187.488 39.9418L187.488 19.1625Z" fill="#05043D"/>
<path d="M187.488 124.906C196.805 127.597 215.721 131.163 235.979 130.664C240.14 142.25 240.387 160.89 220.032 166.231C212.386 168.238 201.833 168.367 187.488 165.541L187.488 124.906Z" fill="#05043D"/>
<path d="M187.488 206.176L187.488 165.541C201.833 168.367 212.386 168.238 220.032 166.231C217.603 184.958 207.693 219.165 187.488 206.176Z" fill="#05043D"/>
<path d="M283.459 41.977C317.806 34.3937 294.571 8.96575 249.112 8.0017C212.744 7.23046 192.876 15.1209 187.488 19.1625L187.488 39.9418M283.459 41.977C249.112 49.5603 214.764 46.5231 187.488 39.9418M283.459 41.977C303.327 51.4797 327.505 73.9415 265.275 87.7677M187.488 39.9418L187.488 78.7299M265.275 87.7677C203.046 101.594 187.488 87.5034 187.488 78.7299M265.275 87.7677C277.398 97.26 294.37 118.307 265.275 126.556C255.814 129.238 245.741 130.423 235.979 130.664M187.488 78.7299L187.488 124.906M187.488 124.906C196.805 127.597 215.721 131.163 235.979 130.664M187.488 124.906L187.488 165.541M235.979 130.664C240.14 142.25 240.387 160.89 220.032 166.231M187.488 165.541L187.488 206.176C207.693 219.165 217.603 184.958 220.032 166.231M187.488 165.541C201.833 168.367 212.386 168.238 220.032 166.231" stroke="#05043D"/>
<path d="M190.027 162.693C190.027 153.92 167.833 139.689 79.059 152.952C61.7654 143.35 37.5543 122.149 79.059 114.164C92.5557 111.567 106.926 110.473 120.852 110.321C149.751 110.004 176.736 113.742 190.027 116.517L190.027 162.693Z" fill="#05043D"/>
<path d="M190.027 201.481C151.116 194.653 102.117 191.305 53.1188 198.578C24.7764 188.896 -9.71497 166.215 79.059 152.952C167.833 139.689 190.027 153.92 190.027 162.693L190.027 201.481Z" fill="#05043D"/>
<path d="M190.027 222.261C182.34 226.254 153.998 233.964 102.117 232.864C37.2663 231.489 4.12021 205.851 53.1188 198.578C102.117 191.305 151.116 194.653 190.027 201.481L190.027 222.261Z" fill="#05043D"/>
<path d="M190.027 116.517C176.736 113.742 149.751 110.004 120.852 110.321C114.916 98.6972 114.564 80.0542 143.601 74.8973C154.508 72.9602 169.563 72.9261 190.027 75.8819L190.027 116.517Z" fill="#05043D"/>
<path d="M190.027 35.2467L190.027 75.8819C169.563 72.9261 154.508 72.9602 143.601 74.8973C147.067 56.1925 161.204 22.0756 190.027 35.2467Z" fill="#05043D"/>
<path d="M53.1188 198.578C4.12021 205.851 37.2663 231.489 102.117 232.864C153.998 233.964 182.34 226.254 190.027 222.261L190.027 201.481M53.1188 198.578C102.117 191.305 151.116 194.653 190.027 201.481M53.1188 198.578C24.7764 188.896 -9.71497 166.215 79.059 152.952M190.027 201.481L190.027 162.693M79.059 152.952C167.833 139.689 190.027 153.92 190.027 162.693M79.059 152.952C61.7654 143.35 37.5543 122.149 79.059 114.164C92.5557 111.567 106.926 110.473 120.852 110.321M190.027 162.693L190.027 116.517M190.027 116.517C176.736 113.742 149.751 110.004 120.852 110.321M190.027 116.517L190.027 75.8819M120.852 110.321C114.916 98.6972 114.564 80.0542 143.601 74.8973M190.027 75.8819L190.027 35.2467C161.204 22.0756 147.067 56.1925 143.601 74.8973M190.027 75.8819C169.563 72.9261 154.508 72.9602 143.601 74.8973" stroke="#05043D"/>
</svg>
