<?xml version="1.0"?>
<svg xmlns="http://www.w3.org/2000/svg" xmlns:xlink="http://www.w3.org/1999/xlink" xmlns:svgjs="http://svgjs.com/svgjs" version="1.1" width="512" height="512" x="0" y="0" viewBox="0 0 512 512" style="enable-background:new 0 0 512 512" xml:space="preserve" class=""><g><path xmlns="http://www.w3.org/2000/svg" d="m96.35 125.06c0 1.81.05 3.62.13 5.41a81.481 81.481 0 0 0 29.19 157.53h30a81.481 81.481 0 0 1 -29.19-157.53c-.08-1.79-.13-3.6-.13-5.41a114.026 114.026 0 0 1 98.95-113.069 113.955 113.955 0 0 0 -128.95 113.069z" fill="#0d5485" data-original="#d4e1f4" style="" class=""/><path xmlns="http://www.w3.org/2000/svg" d="m119.063 123.692c.161.013.321.019.479.019a6 6 0 0 0 5.975-5.528c.147-1.861.356-3.733.622-5.564a6 6 0 0 0 -11.876-1.723c-.3 2.089-.541 4.223-.709 6.343a6 6 0 0 0 5.509 6.453z" fill="#0077b6" data-original="#0635c9" style="" class=""/><g xmlns="http://www.w3.org/2000/svg" fill="#1ae5be"><path d="m200.293 507a24.916 24.916 0 0 0 24.913-24.74 25.3 25.3 0 0 0 -18.206-23.906v-65.291a23.69 23.69 0 0 1 12.355-21.007 35.769 35.769 0 0 0 18.738-31.59l-.257-52.485-12.022.049.2 52.461a23.7 23.7 0 0 1 -12.36 21.007 35.683 35.683 0 0 0 -18.654 31.565v65.114a24.715 24.715 0 0 0 5.293 48.823zm0-37.479a12.74 12.74 0 1 1 -12.739 12.739 12.754 12.754 0 0 1 12.739-12.739z" fill="#00b4d8" data-original="#1ae5be" style="" class=""/><path d="m119.918 440.9a24.8 24.8 0 0 0 24.782-24.737 24.475 24.475 0 0 0 -18.7-24v-16.963a28.29 28.29 0 0 1 20.193-26.995 40.356 40.356 0 0 0 28.807-38.505v-21.7h-12v21.7a28.288 28.288 0 0 1 -20.193 27 40.358 40.358 0 0 0 -28.807 38.5v16.96a24.733 24.733 0 0 0 5.918 48.739zm0-37.479a12.74 12.74 0 1 1 -12.739 12.74 12.754 12.754 0 0 1 12.739-12.738z" fill="#00b4d8" data-original="#1ae5be" style="" class=""/><path d="m374.226 361.289a15.064 15.064 0 0 1 11.774 14.705v39.413a24.475 24.475 0 0 0 -18.7 24 24.734 24.734 0 1 0 30.7-24v-39.413a27.135 27.135 0 0 0 -21.226-26.432 15.065 15.065 0 0 1 -11.774-14.705v-46.857h-12v46.857a27.135 27.135 0 0 0 21.226 26.432zm30.6 78.118a12.74 12.74 0 1 1 -12.739-12.74 12.753 12.753 0 0 1 12.734 12.74z" fill="#00b4d8" data-original="#1ae5be" style="" class=""/><path d="m299.192 331.737a22.237 22.237 0 0 1 13.808 20.409v19.579a24.672 24.672 0 1 0 12 0v-19.579a34.2 34.2 0 0 0 -21.193-31.486 22.237 22.237 0 0 1 -13.807-20.409v-12.251h-12v12.251a34.205 34.205 0 0 0 21.192 31.486zm32.369 63.989a12.74 12.74 0 1 1 -12.739-12.74 12.754 12.754 0 0 1 12.739 12.74z" fill="#00b4d8" data-original="#1ae5be" style="" class=""/></g><path xmlns="http://www.w3.org/2000/svg" d="m124.872 99.363a6 6 0 0 0 5.628-3.921 85.291 85.291 0 0 1 79.86-55.542 85.607 85.607 0 0 1 19.308 2.2 6 6 0 0 0 2.711-11.689 97.7 97.7 0 0 0 -22.056-2.511 97.3 97.3 0 0 0 -91.079 63.378 6 6 0 0 0 5.628 8.082z" fill="#0077b6" data-original="#0635c9" style="" class=""/><path xmlns="http://www.w3.org/2000/svg" d="m125.667 294h260.633a87.471 87.471 0 0 0 72.908-135.752 86.842 86.842 0 0 0 -51.011-36.4 87.437 87.437 0 0 0 -108.3-76.752 119.686 119.686 0 0 0 -89.536-40.096h-.047a120.15 120.15 0 0 0 -119.968 120.058q0 .715.01 1.448a86.656 86.656 0 0 0 -36.722 30.279q-.664.966-1.3 1.927a6 6 0 0 0 5.021 9.288h.072a5.983 5.983 0 0 0 4.986-2.674 77.276 77.276 0 0 1 36.358-29.493 5.835 5.835 0 0 0 3.7-5.731c-.083-1.853-.124-3.487-.124-5.092a108.1 108.1 0 0 1 107.972-108.01h.042a107.744 107.744 0 0 1 82.866 38.731 6 6 0 0 0 6.32 1.9 75.435 75.435 0 0 1 96.963 69.3 6.028 6.028 0 0 0 4.81 5.644 75.472 75.472 0 0 1 -15.02 149.425h-260.629c-41.621 0-75.457-34.1-75.426-75.721 0-.708.012-1.405.034-2.1a6 6 0 1 0 -12-.335c-.025.805-.038 1.609-.039 2.426-.031 48.239 39.184 87.73 87.423 87.73z" fill="#0077b6" data-original="#0635c9" style="" class=""/></g></svg>
