<svg width="80" height="80" viewBox="0 0 80 80" fill="none" xmlns="http://www.w3.org/2000/svg">
<path d="M74.0918 25.5006L69.3688 63.2387H10.6313L5.90833 25.5006L25.8541 46.6245L40 25.5006L54.146 46.6245L74.0918 25.5006Z" fill="#FFCC80"/>
<path d="M40 25.4693C42.4044 25.4693 44.3536 23.5201 44.3536 21.1157C44.3536 18.7113 42.4044 16.7621 40 16.7621C37.5956 16.7621 35.6464 18.7113 35.6464 21.1157C35.6464 23.5201 37.5956 25.4693 40 25.4693Z" fill="#2196F3"/>
<path d="M5.94734 25.4693C8.35177 25.4693 10.3009 23.5201 10.3009 21.1157C10.3009 18.7113 8.35177 16.7621 5.94734 16.7621C3.54292 16.7621 1.59375 18.7113 1.59375 21.1157C1.59375 23.5201 3.54292 25.4693 5.94734 25.4693Z" fill="#2196F3"/>
<path d="M74.0526 25.4693C76.457 25.4693 78.4062 23.5201 78.4062 21.1157C78.4062 18.7113 76.457 16.7621 74.0526 16.7621C71.6482 16.7621 69.699 18.7113 69.699 21.1157C69.699 23.5201 71.6482 25.4693 74.0526 25.4693Z" fill="#2196F3"/>
<path d="M80 21.1152C80 17.8358 77.3322 15.168 74.0528 15.168C70.7736 15.168 68.1058 17.8358 68.1058 21.1152C68.1058 23.3387 69.3331 25.28 71.1453 26.3003L54.3587 44.0781L42.572 26.477C44.5672 25.5161 45.9475 23.4739 45.9475 21.1152C45.9475 17.8358 43.2797 15.168 40.0003 15.168C36.7209 15.168 34.0531 17.8358 34.0531 21.1152C34.0531 23.4739 35.4334 25.5161 37.4286 26.477L25.6414 44.0781L8.855 26.3005C10.6672 25.2802 11.8945 23.3391 11.8945 21.1153C11.8945 17.8359 9.22672 15.1681 5.9475 15.1681C2.66781 15.168 0 17.8358 0 21.1152C0 23.8862 1.90516 26.2205 4.47437 26.8775L9.05 63.4366C9.14984 64.2341 9.82766 64.8322 10.6314 64.8322H69.3689C70.1725 64.8322 70.8503 64.2339 70.9503 63.4366L75.5258 26.8777C78.0948 26.2206 80 23.8864 80 21.1152ZM40 18.3552C41.5219 18.3552 42.76 19.5933 42.76 21.1152C42.76 22.637 41.5217 23.8752 40 23.8752C38.4783 23.8752 37.24 22.6369 37.24 21.1152C37.24 19.5934 38.4781 18.3552 40 18.3552ZM3.18719 21.1152C3.18719 19.5933 4.42547 18.3552 5.94719 18.3552C7.46891 18.3552 8.70703 19.5933 8.70703 21.1152C8.70703 22.637 7.46891 23.8752 5.94719 23.8752C4.42547 23.8752 3.18719 22.6372 3.18719 21.1152ZM67.9622 61.6451H12.0378L11.7108 59.0325H55.8436C56.7236 59.0325 57.4372 58.3191 57.4372 57.4389C57.4372 56.5587 56.7236 55.8453 55.8436 55.8453H11.3119L8.09453 30.1372L24.6953 47.7186C25.0281 48.0711 25.5022 48.2531 25.9866 48.2127C26.4697 48.1723 26.9083 47.9142 27.1781 47.5112L40 28.3647L52.8219 47.5114C53.0916 47.9142 53.5302 48.1723 54.0134 48.2128C54.4947 48.2536 54.9719 48.0712 55.3047 47.7187L71.9055 30.1372L67.9622 61.6451ZM74.0528 23.8752C72.5309 23.8752 71.293 22.6369 71.293 21.1152C71.293 19.5934 72.5311 18.3552 74.0528 18.3552C75.5745 18.3552 76.8128 19.5933 76.8128 21.1152C76.8128 22.6372 75.5745 23.8752 74.0528 23.8752Z" fill="#607D8B"/>
<path d="M61.0777 59.0325H62.068C62.948 59.0325 63.6616 58.3191 63.6616 57.4389C63.6616 56.5588 62.948 55.8453 62.068 55.8453H61.0777C60.1977 55.8453 59.4841 56.5588 59.4841 57.4389C59.4841 58.3191 60.1975 59.0325 61.0777 59.0325Z" fill="#607D8B"/>
</svg>
