<svg width="186" height="186" viewBox="0 0 186 186" fill="none" xmlns="http://www.w3.org/2000/svg">
<path d="M81.375 162.75V127.875C81.3719 124.793 80.1462 121.838 77.9667 119.658C75.7873 117.479 72.8322 116.253 69.75 116.25H58.125V83.7815L83.7814 58.1251H116.25V69.7501C116.253 72.8323 117.479 75.7874 119.658 77.9668C121.838 80.1463 124.793 81.372 127.875 81.3751H162.75C165.832 81.372 168.787 80.1463 170.967 77.9668C173.146 75.7874 174.372 72.8323 174.375 69.7501V34.8751C174.372 31.7929 173.146 28.8378 170.967 26.6584C168.787 24.4789 165.832 23.2532 162.75 23.2501H127.875C124.793 23.2532 121.838 24.4789 119.658 26.6584C117.479 28.8378 116.253 31.7929 116.25 34.8751V46.5001H83.7814L56.4219 19.1407C55.3319 18.051 53.8538 17.4388 52.3125 17.4388C50.7712 17.4388 49.2931 18.051 48.203 19.1407L19.1405 48.2032C18.0509 49.2932 17.4387 50.7713 17.4387 52.3126C17.4387 53.8539 18.0509 55.332 19.1405 56.422L46.5 83.7815V116.25H34.875C31.7928 116.253 28.8377 117.479 26.6583 119.658C24.4788 121.838 23.2531 124.793 23.25 127.875V162.75C23.2531 165.832 24.4788 168.787 26.6583 170.967C28.8377 173.146 31.7928 174.372 34.875 174.375H69.75C72.8322 174.372 75.7873 173.146 77.9667 170.967C80.1462 168.787 81.3719 165.832 81.375 162.75ZM162.75 34.8751V69.7501H127.875V34.8751H162.75ZM31.4689 52.3126L52.3125 31.469L73.1561 52.3126L52.3125 73.1562L31.4689 52.3126ZM34.875 127.875H69.75V162.75H34.875V127.875Z" fill="#4A82B4" fill-opacity="0.25"/>
</svg>
