<svg width="75" height="75" viewBox="0 0 75 75" fill="none" xmlns="http://www.w3.org/2000/svg">
<path d="M65.6251 7.03135C64.1753 7.03429 62.7621 7.48665 61.5801 8.32614C60.3981 9.16564 59.5055 10.351 59.0251 11.7189H51.2298C50.7199 9.70736 49.5539 7.92329 47.9163 6.64892C46.2786 5.37454 44.2627 4.68262 42.1876 4.68262C40.1125 4.68262 38.0966 5.37454 36.459 6.64892C34.8213 7.92329 33.6553 9.70736 33.1454 11.7189H23.1048C22.6949 10.1195 21.8692 8.65705 20.7113 7.48004C19.5535 6.30303 18.1048 5.45337 16.5124 5.01733C14.9199 4.58129 13.2405 4.5744 11.6445 4.99735C10.0486 5.42031 8.59299 6.25805 7.42552 7.42552C6.25805 8.59299 5.42031 10.0486 4.99735 11.6445C4.5744 13.2405 4.58129 14.9199 5.01733 16.5124C5.45337 18.1048 6.30303 19.5535 7.48004 20.7113C8.65705 21.8692 10.1195 22.6949 11.7189 23.1048V33.1454C9.70736 33.6553 7.92329 34.8213 6.64892 36.459C5.37454 38.0966 4.68262 40.1125 4.68262 42.1876C4.68262 44.2627 5.37454 46.2786 6.64892 47.9163C7.92329 49.5539 9.70736 50.7199 11.7189 51.2298V59.0251C10.1551 59.578 8.83708 60.6659 7.99784 62.0965C7.1586 63.5272 6.85213 65.2085 7.13261 66.8432C7.41309 68.478 8.26246 69.961 9.53059 71.03C10.7987 72.0991 12.404 72.6855 14.0626 72.6855C15.7212 72.6855 17.3265 72.0991 18.5946 71.03C19.8627 69.961 20.7121 68.478 20.9926 66.8432C21.2731 65.2085 20.9666 63.5272 20.1274 62.0965C19.2881 60.6659 17.9701 59.578 16.4064 59.0251V51.2298C17.8652 50.8516 19.2107 50.1254 20.3274 49.1134L28.2118 53.0556C28.1655 53.3371 28.1365 53.6212 28.1251 53.9064C28.1187 55.5351 28.6757 57.1161 29.7017 58.3811C30.7277 59.6461 32.1596 60.5174 33.7547 60.8473C35.3497 61.1772 37.0098 60.9454 38.4534 60.1911C39.897 59.4369 41.0355 58.2066 41.6757 56.7089C42.3158 55.2112 42.4184 53.5382 41.966 51.9734C41.5136 50.4087 40.534 49.0486 39.1933 48.1236C37.8527 47.1987 36.2334 46.7657 34.61 46.8983C32.9865 47.0308 31.4589 47.7207 30.286 48.8509L22.9079 45.1618C23.2461 44.2061 23.4251 43.2013 23.4376 42.1876C23.4314 40.1148 22.7378 38.1026 21.4654 36.4663C20.193 34.83 18.4137 33.662 16.4064 33.1454V23.1048C18.0176 22.6847 19.4877 21.8426 20.6652 20.6652C21.8426 19.4877 22.6847 18.0176 23.1048 16.4064H33.1454C33.4347 17.5875 33.9547 18.6999 34.6754 19.6794C35.3961 20.659 36.3033 21.4864 37.3448 22.1141C38.3864 22.7418 39.5418 23.1575 40.7445 23.3371C41.9473 23.5168 43.1737 23.457 44.3532 23.161L48.5978 30.5907C47.4935 31.8658 46.8766 33.4908 46.8564 35.1774C46.8363 36.864 47.4141 38.5033 48.4875 39.8044C49.5609 41.1055 51.0605 41.9844 52.7202 42.2851C54.3799 42.5859 56.0925 42.289 57.5542 41.4473C59.0159 40.6055 60.1322 39.2732 60.7051 37.6868C61.278 36.1003 61.2705 34.3622 60.6839 32.7807C60.0973 31.1993 58.9695 29.8767 57.5005 29.0477C56.0316 28.2186 54.3165 27.9366 52.6595 28.2517L48.4899 20.9532C49.8239 19.7346 50.7756 18.1551 51.2298 16.4064H59.0251C59.4569 17.6185 60.2135 18.6886 61.2123 19.4998C62.2112 20.311 63.4138 20.832 64.6887 21.006C65.9636 21.1799 67.2618 21.0001 68.4414 20.4861C69.6211 19.9722 70.6367 19.1439 71.3774 18.0917C72.1182 17.0396 72.5554 15.804 72.6415 14.5202C72.7275 13.2363 72.459 11.9535 71.8653 10.812C71.2715 9.67039 70.3755 8.71398 69.275 8.04723C68.1744 7.38048 66.9118 7.02906 65.6251 7.03135ZM18.7501 42.1876C18.7501 43.1147 18.4752 44.021 17.9601 44.7918C17.445 45.5627 16.713 46.1635 15.8564 46.5183C14.9999 46.8731 14.0574 46.9659 13.1481 46.785C12.2388 46.6042 11.4036 46.1577 10.748 45.5022C10.0925 44.8466 9.64604 44.0114 9.46517 43.1021C9.2843 42.1928 9.37713 41.2503 9.73192 40.3938C10.0867 39.5372 10.6875 38.8052 11.4584 38.2901C12.2292 37.775 13.1355 37.5001 14.0626 37.5001C15.3054 37.5013 16.497 37.9956 17.3758 38.8744C18.2546 39.7532 18.7489 40.9448 18.7501 42.1876ZM14.0626 18.7501C13.1355 18.7501 12.2292 18.4752 11.4584 17.9601C10.6875 17.445 10.0867 16.713 9.73192 15.8564C9.37713 14.9999 9.2843 14.0574 9.46517 13.1481C9.64604 12.2388 10.0925 11.4036 10.748 10.748C11.4036 10.0925 12.2388 9.64604 13.1481 9.46517C14.0574 9.2843 14.9999 9.37713 15.8564 9.73192C16.713 10.0867 17.445 10.6875 17.9601 11.4584C18.4752 12.2292 18.7501 13.1355 18.7501 14.0626C18.7489 15.3054 18.2546 16.497 17.3758 17.3758C16.497 18.2546 15.3054 18.7489 14.0626 18.7501ZM37.5001 14.0626C37.5001 13.1355 37.775 12.2292 38.2901 11.4584C38.8052 10.6875 39.5372 10.0867 40.3938 9.73192C41.2503 9.37713 42.1928 9.2843 43.1021 9.46517C44.0114 9.64604 44.8466 10.0925 45.5022 10.748C46.1577 11.4036 46.6042 12.2388 46.785 13.1481C46.9659 14.0574 46.8731 14.9999 46.5183 15.8564C46.1635 16.713 45.5627 17.445 44.7918 17.9601C44.021 18.4752 43.1147 18.7501 42.1876 18.7501C40.9448 18.7489 39.7532 18.2546 38.8744 17.3758C37.9956 16.497 37.5013 15.3054 37.5001 14.0626Z" fill="#3945AC"/>
</svg>
