<svg width="80" height="80" viewBox="0 0 80 80" fill="none" xmlns="http://www.w3.org/2000/svg">
<g clip-path="url(#clip0)">
<path d="M80 40C80 62.0917 62.0917 80 40 80C17.9083 80 0 62.0917 0 40C0 17.9083 17.9083 0 40 0C62.0917 0 80 17.9083 80 40Z" fill="#554FB2"/>
<path d="M79.9817 41.1641C73.587 34.7719 66.4575 27.6295 66.4575 27.6002C65.2167 27.6002 63.996 27.6881 62.8003 27.8547C62.793 27.8376 54.3689 19.4294 54.342 19.366C51.6522 20.4805 49.2444 21.9905 47.1564 23.8008C47.1143 23.7581 40.0525 16.6932 40 16.6414C37.4646 19.1761 35.5542 22.1022 34.2651 25.2266C31.8787 22.8334 28.9935 20.8613 25.6812 19.4893C24.3091 22.8016 23.6639 26.2361 23.6688 29.6162C20.5475 28.318 17.1277 27.6002 13.5425 27.6002C13.5425 34.9342 16.5424 41.5797 21.3794 46.3771C21.4313 46.429 29.0515 54.0492 29.0594 54.0577H19.743C16.333 54.0577 13.5425 56.8483 13.5425 60.2583C13.5425 60.2583 25.8478 72.5367 32.6257 79.319C35.0159 79.7645 37.4805 80.0001 40 80.0001C61.7023 80.0001 79.3658 62.7168 79.9817 41.1641V41.1641Z" fill="#2B4478"/>
<path d="M54.342 19.3657C40.8643 24.9486 34.4409 40.4558 40.0238 53.9342C53.5016 48.3513 59.9255 32.8441 54.342 19.3657V19.3657Z" fill="#01B1BC"/>
<path d="M25.6812 19.489C20.0983 32.9674 26.5216 48.4746 40 54.0575C45.5829 40.5791 39.1595 25.0719 25.6812 19.489Z" fill="#3AC7CF"/>
<path d="M60.2563 54.0576H49.353V60.2582H66.4575C66.4575 56.8481 63.667 54.0576 60.2563 54.0576Z" fill="#1D7258"/>
<path d="M19.7437 54.0576H30.647V60.2582H13.5425C13.5425 56.8481 16.333 54.0576 19.7437 54.0576Z" fill="#1D7258"/>
<path d="M13.5425 27.6001C13.5425 42.1887 25.4114 54.0576 40 54.0576C40 39.469 28.1311 27.6001 13.5425 27.6001Z" fill="#74DCE2"/>
<path d="M66.4575 27.6001C51.8689 27.6001 40 39.469 40 54.0576C54.5886 54.0576 66.4575 42.1887 66.4575 27.6001Z" fill="#3AC7CF"/>
<path d="M40 16.6414L33.7988 35.3492L40 54.0577C50.3156 43.7416 50.3156 26.9569 40 16.6414Z" fill="#74DCE2"/>
<path d="M40 54.0577V16.6414C29.6844 26.9569 29.6844 43.7416 40 54.0577Z" fill="#ADF2F5"/>
<path d="M30.647 54.0576C25.531 54.0576 21.3452 58.2434 21.3452 63.3588H30.6989C35.8142 63.3588 40 59.1736 40 54.0576H30.647Z" fill="#54A74D"/>
<path d="M49.353 54.0576H40C40 59.1736 44.1858 63.3588 49.3011 63.3588H58.6548C58.6548 58.2434 54.469 54.0576 49.353 54.0576Z" fill="#388D52"/>
</g>
<defs>
<clipPath id="clip0">
<rect width="80" height="80" fill="white"/>
</clipPath>
</defs>
</svg>
