<svg width="80" height="80" viewBox="0 0 80 80" fill="none" xmlns="http://www.w3.org/2000/svg">
<path d="M40 80C62.0914 80 80 62.0914 80 40C80 17.9086 62.0914 0 40 0C17.9086 0 0 17.9086 0 40C0 62.0914 17.9086 80 40 80Z" fill="#554FB2"/>
<path d="M80 40C80 35.5392 79.2691 31.2493 77.9216 27.2426L65.3694 14.6904L14.6306 65.429L27.0956 77.8718C31.1444 79.2509 35.4847 80 40 80C62.0914 80 80 62.0914 80 40Z" fill="#2B4478"/>
<path d="M49.948 46.3638C58.9236 46.3638 66.1997 39.0877 66.1997 30.1121C66.1997 21.1365 58.9236 13.8604 49.948 13.8604C40.9724 13.8604 33.6963 21.1365 33.6963 30.1121C33.6963 39.0877 40.9724 46.3638 49.948 46.3638Z" fill="#5EEFEE"/>
<path d="M61.44 41.603C55.0927 47.9503 44.8021 47.9503 38.4558 41.6041L61.44 18.6199C67.7863 24.9661 67.7863 35.2568 61.44 41.603Z" fill="#54C9FC"/>
<path d="M32.5639 39.5356L40.5177 47.4894L26.8236 61.1835L18.8699 53.2297L32.5639 39.5356Z" fill="#54A74D"/>
<path d="M22.8354 57.2141L36.5303 43.5193L40.5071 47.4962L26.8123 61.191L22.8354 57.2141Z" fill="#388D52"/>
<path d="M34.5266 45.5334C26.0232 37.0299 26.0232 23.1938 34.5266 14.6906C43.0301 6.18713 56.8662 6.18713 65.3696 14.6906C73.873 23.194 73.873 37.0301 65.3696 45.5335C56.866 54.0368 43.0299 54.0368 34.5266 45.5334ZM59.8452 20.2148C54.3879 14.7574 45.5082 14.7574 40.0508 20.2148C34.5935 25.6721 34.5935 34.5517 40.0508 40.0092C45.5082 45.4667 54.3879 45.4665 59.8452 40.0092C65.3024 34.5518 65.3026 25.6721 59.8452 20.2148V20.2148Z" fill="#776D6B"/>
<path d="M65.369 14.6909L59.8448 20.2151C65.3016 25.672 65.3027 34.5517 59.8459 40.0086C54.3879 45.4666 45.5082 45.4655 40.0513 40.0086L34.5271 45.5328C35.9015 46.9072 37.4163 48.0597 39.0249 48.9898C47.3643 53.8136 58.2405 52.6623 65.3702 45.5328C73.873 37.03 73.872 23.1939 65.369 14.6909V14.6909Z" fill="#57555C"/>
<path d="M14.6307 65.4292C12.434 63.2325 12.434 59.6709 14.6307 57.4742L19.2712 52.8337L27.2262 60.7887L22.5857 65.429C20.389 67.6259 16.8274 67.6259 14.6307 65.4292V65.4292Z" fill="#776D6B"/>
<path d="M27.226 60.7888L22.5857 65.4291C20.3893 67.6255 16.8273 67.6255 14.6307 65.4291L23.2485 56.8113L27.226 60.7888Z" fill="#57555C"/>
</svg>
