<svg width="203" height="60" viewBox="0 0 203 60" fill="none" xmlns="http://www.w3.org/2000/svg">
<path d="M130.806 58.8407C122.032 58.8407 108.109 51.1958 122.607 20.6161C113.245 14.6591 92.3813 6.31918 83.8187 20.6161C81.0342 25.2653 79.7406 30.2154 79.3946 35.0124C78.6765 44.9671 82.0394 54.2624 84.6293 58.8407L130.806 58.8407Z" fill="#05043d"/>
<path d="M169.594 58.8407C163.306 45.4373 160.64 28.5589 168.594 11.6806C159.305 1.91762 137.104 -9.96347 122.607 20.6161C108.109 51.1958 122.032 58.8407 130.806 58.8407L169.594 58.8407Z" fill="#05043d"/>
<path d="M190.373 58.8407C194.473 56.1931 202.577 46.4301 202.198 28.5589C201.725 6.21997 176.547 -5.19772 168.594 11.6806C160.64 28.5589 163.306 45.4373 169.594 58.8407H190.373Z" fill="#05043d"/>
<path d="M84.6293 58.8407C82.0394 54.2624 78.6765 44.9671 79.3946 35.0124C67.8536 32.9675 49.2156 32.8463 43.655 42.8486C41.5663 46.6059 41.3228 51.7917 43.9942 58.8407L84.6293 58.8407Z" fill="#05043d"/>
<path d="M3.35905 58.8407L43.9942 58.8407C41.3228 51.7917 41.5663 46.6059 43.655 42.8486C24.902 44.0424 -9.41145 48.9123 3.35905 58.8407Z" fill="#05043d"/>
<path d="M168.594 11.6806C176.547 -5.19772 201.725 6.21997 202.198 28.5589C202.577 46.4301 194.473 56.1931 190.373 58.8407H169.594M168.594 11.6806C160.64 28.5589 163.306 45.4373 169.594 58.8407M168.594 11.6806C159.305 1.91762 137.104 -9.96347 122.607 20.6161M169.594 58.8407L130.806 58.8407M122.607 20.6161C108.109 51.1958 122.032 58.8407 130.806 58.8407M122.607 20.6161C113.245 14.6591 92.3813 6.31918 83.8187 20.6161C81.0342 25.2653 79.7406 30.2154 79.3946 35.0124M130.806 58.8407L84.6293 58.8407M84.6293 58.8407C82.0394 54.2624 78.6765 44.9671 79.3946 35.0124M84.6293 58.8407L43.9942 58.8407M79.3946 35.0124C67.8536 32.9675 49.2156 32.8463 43.655 42.8486M43.9942 58.8407L3.35905 58.8407C-9.41145 48.9123 24.902 44.0424 43.655 42.8486M43.9942 58.8407C41.3228 51.7917 41.5663 46.6059 43.655 42.8486" stroke="#05043d"/>
</svg>
